solid CATIA STL
  facet normal -1.000000e+000  0.000000e+000  0.000000e+000
    outer loop
      vertex  2.676928e+005  2.313558e+005  7.612216e+004
      vertex  2.676928e+005  2.313558e+005  7.612217e+004
      vertex  2.676928e+005  2.313558e+005  7.813783e+004
    endloop
  endfacet
  facet normal -1.000000e+000  0.000000e+000  0.000000e+000
    outer loop
      vertex  2.676928e+005  2.313558e+005  7.612216e+004
      vertex  2.676928e+005  2.313558e+005  7.813783e+004
      vertex  2.676928e+005  2.313558e+005  7.813784e+004
    endloop
  endfacet
  facet normal -4.073792e-001 -9.132591e-001  -0.000000e+000
    outer loop
      vertex  2.676928e+005  2.313558e+005  7.612216e+004
      vertex  2.676928e+005  2.313558e+005  7.813784e+004
      vertex  2.676693e+005  2.313663e+005  7.710374e+004
    endloop
  endfacet
  facet normal -4.039745e-001 -9.147702e-001  9.751960e-005
    outer loop
      vertex  2.676928e+005  2.313558e+005  7.612216e+004
      vertex  2.676693e+005  2.313663e+005  7.710374e+004
      vertex  2.676620e+005  2.313696e+005  7.703905e+004
    endloop
  endfacet
  facet normal -4.016623e-001 -9.157878e-001  1.905301e-004
    outer loop
      vertex  2.676928e+005  2.313558e+005  7.612216e+004
      vertex  2.676620e+005  2.313696e+005  7.703905e+004
      vertex  2.676464e+005  2.313764e+005  7.697573e+004
    endloop
  endfacet
  facet normal -3.976707e-001 -9.175281e-001  4.494025e-004
    outer loop
      vertex  2.676928e+005  2.313558e+005  7.612216e+004
      vertex  2.676464e+005  2.313764e+005  7.697573e+004
      vertex  2.676257e+005  2.313853e+005  7.692122e+004
    endloop
  endfacet
  facet normal -3.920930e-001 -9.199250e-001  1.006400e-003
    outer loop
      vertex  2.676928e+005  2.313558e+005  7.612216e+004
      vertex  2.676257e+005  2.313853e+005  7.692122e+004
      vertex  2.675985e+005  2.313969e+005  7.686941e+004
    endloop
  endfacet
  facet normal -3.975455e-001 -9.175825e-001  1.896485e-004
    outer loop
      vertex  2.676928e+005  2.313558e+005  7.612216e+004
      vertex  2.675985e+005  2.313969e+005  7.686941e+004
      vertex  2.675910e+005  2.314000e+005  7.634313e+004
    endloop
  endfacet
  facet normal -3.831881e-001 -9.236703e-001 -5.128715e-005
    outer loop
      vertex  2.675910e+005  2.314000e+005  7.634313e+004
      vertex  2.675985e+005  2.313969e+005  7.686941e+004
      vertex  2.675654e+005  2.314106e+005  7.682171e+004
    endloop
  endfacet
  facet normal -3.752100e-001 -9.269397e-001  4.471088e-004
    outer loop
      vertex  2.675910e+005  2.314000e+005  7.634313e+004
      vertex  2.675654e+005  2.314106e+005  7.682171e+004
      vertex  2.675264e+005  2.314263e+005  7.677831e+004
    endloop
  endfacet
  facet normal -3.666388e-001 -9.303614e-001  1.925817e-003
    outer loop
      vertex  2.675910e+005  2.314000e+005  7.634313e+004
      vertex  2.675264e+005  2.314263e+005  7.677831e+004
      vertex  2.674876e+005  2.314416e+005  7.674452e+004
    endloop
  endfacet
  facet normal -3.578424e-001 -9.337709e-001  4.545892e-003
    outer loop
      vertex  2.675910e+005  2.314000e+005  7.634313e+004
      vertex  2.674876e+005  2.314416e+005  7.674452e+004
      vertex  2.674446e+005  2.314579e+005  7.671533e+004
    endloop
  endfacet
  facet normal -3.512769e-001 -9.362414e-001  7.512236e-003
    outer loop
      vertex  2.675910e+005  2.314000e+005  7.634313e+004
      vertex  2.674446e+005  2.314579e+005  7.671533e+004
      vertex  2.674228e+005  2.314660e+005  7.670310e+004
    endloop
  endfacet
  facet normal -3.545371e-001 -9.350241e-001 -5.765200e-003
    outer loop
      vertex  2.675910e+005  2.314000e+005  7.791688e+004
      vertex  2.674228e+005  2.314660e+005  7.755690e+004
      vertex  2.674773e+005  2.314455e+005  7.752315e+004
    endloop
  endfacet
  facet normal -3.645851e-001 -9.311669e-001 -2.416871e-003
    outer loop
      vertex  2.675910e+005  2.314000e+005  7.791688e+004
      vertex  2.674773e+005  2.314455e+005  7.752315e+004
      vertex  2.675174e+005  2.314299e+005  7.749026e+004
    endloop
  endfacet
  facet normal -3.727229e-001 -9.279423e-001 -7.868843e-004
    outer loop
      vertex  2.675910e+005  2.314000e+005  7.791688e+004
      vertex  2.675174e+005  2.314299e+005  7.749026e+004
      vertex  2.675532e+005  2.314156e+005  7.745319e+004
    endloop
  endfacet
  facet normal -3.807350e-001 -9.246842e-001 -2.340653e-005
    outer loop
      vertex  2.675910e+005  2.314000e+005  7.791688e+004
      vertex  2.675532e+005  2.314156e+005  7.745319e+004
      vertex  2.675884e+005  2.314011e+005  7.740659e+004
    endloop
  endfacet
  facet normal -3.883123e-001 -9.215278e-001  2.233829e-005
    outer loop
      vertex  2.675910e+005  2.314000e+005  7.791688e+004
      vertex  2.675884e+005  2.314011e+005  7.740659e+004
      vertex  2.676174e+005  2.313889e+005  7.735625e+004
    endloop
  endfacet
  facet normal -3.970457e-001 -9.177988e-001 -4.631213e-004
    outer loop
      vertex  2.675910e+005  2.314000e+005  7.791688e+004
      vertex  2.676174e+005  2.313889e+005  7.735625e+004
      vertex  2.676928e+005  2.313558e+005  7.813784e+004
    endloop
  endfacet
  facet normal -3.959394e-001 -9.182765e-001 -5.900437e-004
    outer loop
      vertex  2.676928e+005  2.313558e+005  7.813784e+004
      vertex  2.676174e+005  2.313889e+005  7.735625e+004
      vertex  2.676425e+005  2.313781e+005  7.729620e+004
    endloop
  endfacet
  facet normal -4.015042e-001 -9.158572e-001 -1.934691e-004
    outer loop
      vertex  2.676928e+005  2.313558e+005  7.813784e+004
      vertex  2.676425e+005  2.313781e+005  7.729620e+004
      vertex  2.676595e+005  2.313706e+005  7.723355e+004
    endloop
  endfacet
  facet normal -4.029373e-001 -9.152276e-001 -1.304326e-004
    outer loop
      vertex  2.676928e+005  2.313558e+005  7.813784e+004
      vertex  2.676595e+005  2.313706e+005  7.723355e+004
      vertex  2.676685e+005  2.313667e+005  7.716894e+004
    endloop
  endfacet
  facet normal -4.063621e-001 -9.137121e-001 -2.766954e-005
    outer loop
      vertex  2.676928e+005  2.313558e+005  7.813784e+004
      vertex  2.676685e+005  2.313667e+005  7.716894e+004
      vertex  2.676693e+005  2.313663e+005  7.710374e+004
    endloop
  endfacet
  facet normal -5.929965e-001 -8.052051e-001  2.627752e-006
    outer loop
      vertex  2.685104e+005  2.308676e+005  7.659426e+004
      vertex  2.683821e+005  2.309621e+005  7.774317e+004
      vertex  2.683818e+005  2.309623e+005  7.651666e+004
    endloop
  endfacet
  facet normal -5.613562e-001 -8.275743e-001 -8.332209e-006
    outer loop
      vertex  2.683818e+005  2.309623e+005  7.651666e+004
      vertex  2.683821e+005  2.309621e+005  7.774317e+004
      vertex  2.682501e+005  2.310516e+005  7.782136e+004
    endloop
  endfacet
  facet normal -5.613316e-001 -8.275909e-001 -4.714707e-006
    outer loop
      vertex  2.683818e+005  2.309623e+005  7.651666e+004
      vertex  2.682501e+005  2.310516e+005  7.782136e+004
      vertex  2.682499e+005  2.310518e+005  7.643850e+004
    endloop
  endfacet
  facet normal -5.290507e-001 -8.485902e-001 -1.219385e-005
    outer loop
      vertex  2.682499e+005  2.310518e+005  7.643850e+004
      vertex  2.682501e+005  2.310516e+005  7.782136e+004
      vertex  2.681150e+005  2.311358e+005  7.790001e+004
    endloop
  endfacet
  facet normal -5.289233e-001 -8.486695e-001  4.122986e-006
    outer loop
      vertex  2.682499e+005  2.310518e+005  7.643850e+004
      vertex  2.681150e+005  2.311358e+005  7.790001e+004
      vertex  2.681148e+005  2.311359e+005  7.635989e+004
    endloop
  endfacet
  facet normal -4.959171e-001 -8.683698e-001 -1.294369e-006
    outer loop
      vertex  2.681148e+005  2.311359e+005  7.635989e+004
      vertex  2.681150e+005  2.311358e+005  7.790001e+004
      vertex  2.679770e+005  2.312146e+005  7.797903e+004
    endloop
  endfacet
  facet normal -4.959463e-001 -8.683532e-001 -4.579802e-006
    outer loop
      vertex  2.681148e+005  2.311359e+005  7.635989e+004
      vertex  2.679770e+005  2.312146e+005  7.797903e+004
      vertex  2.679769e+005  2.312147e+005  7.628090e+004
    endloop
  endfacet
  facet normal -4.621150e-001 -8.868200e-001 -7.127222e-006
    outer loop
      vertex  2.679769e+005  2.312147e+005  7.628090e+004
      vertex  2.679770e+005  2.312146e+005  7.797903e+004
      vertex  2.678362e+005  2.312880e+005  7.805834e+004
    endloop
  endfacet
  facet normal -4.620380e-001 -8.868602e-001  6.263749e-007
    outer loop
      vertex  2.679769e+005  2.312147e+005  7.628090e+004
      vertex  2.678362e+005  2.312880e+005  7.805834e+004
      vertex  2.678362e+005  2.312880e+005  7.620163e+004
    endloop
  endfacet
  facet normal -4.276464e-001 -9.039461e-001 -8.188812e-007
    outer loop
      vertex  2.678362e+005  2.312880e+005  7.620163e+004
      vertex  2.678362e+005  2.312880e+005  7.805834e+004
      vertex  2.676928e+005  2.313558e+005  7.813783e+004
    endloop
  endfacet
  facet normal -4.276373e-001 -9.039505e-001  -0.000000e+000
    outer loop
      vertex  2.678362e+005  2.312880e+005  7.620163e+004
      vertex  2.676928e+005  2.313558e+005  7.813783e+004
      vertex  2.676928e+005  2.313558e+005  7.612217e+004
    endloop
  endfacet
  facet normal -5.929979e-001 -8.052040e-001  2.372890e-006
    outer loop
      vertex  2.683821e+005  2.309621e+005  7.774317e+004
      vertex  2.685104e+005  2.308676e+005  7.659426e+004
      vertex  2.685107e+005  2.308673e+005  7.766555e+004
    endloop
  endfacet
  facet normal -6.172970e-001 -7.867302e-001  1.448095e-005
    outer loop
      vertex  2.685107e+005  2.308673e+005  7.766555e+004
      vertex  2.685104e+005  2.308676e+005  7.659426e+004
      vertex  2.685842e+005  2.308097e+005  7.663839e+004
    endloop
  endfacet
  facet normal -6.174861e-001 -7.865818e-001 -7.368751e-006
    outer loop
      vertex  2.685107e+005  2.308673e+005  7.766555e+004
      vertex  2.685842e+005  2.308097e+005  7.663839e+004
      vertex  2.685846e+005  2.308094e+005  7.762138e+004
    endloop
  endfacet
  facet normal -6.354009e-001 -7.721823e-001  4.841625e-006
    outer loop
      vertex  2.685846e+005  2.308094e+005  7.762138e+004
      vertex  2.685842e+005  2.308097e+005  7.663839e+004
      vertex  2.686598e+005  2.307475e+005  7.667580e+004
    endloop
  endfacet
  facet normal -6.354681e-001 -7.721272e-001 -4.114235e-006
    outer loop
      vertex  2.685846e+005  2.308094e+005  7.762138e+004
      vertex  2.686598e+005  2.307475e+005  7.667580e+004
      vertex  2.686602e+005  2.307471e+005  7.758399e+004
    endloop
  endfacet
  facet normal -6.520815e-001 -7.581488e-001  1.047291e-005
    outer loop
      vertex  2.686602e+005  2.307471e+005  7.758399e+004
      vertex  2.686598e+005  2.307475e+005  7.667580e+004
      vertex  2.687211e+005  2.306948e+005  7.669954e+004
    endloop
  endfacet
  facet normal -6.523367e-001 -7.579294e-001 -2.006205e-005
    outer loop
      vertex  2.686602e+005  2.307471e+005  7.758399e+004
      vertex  2.687211e+005  2.306948e+005  7.669954e+004
      vertex  2.687216e+005  2.306943e+005  7.756029e+004
    endloop
  endfacet
  facet normal -6.650866e-001 -7.467663e-001 -6.779133e-006
    outer loop
      vertex  2.687216e+005  2.306943e+005  7.756029e+004
      vertex  2.687211e+005  2.306948e+005  7.669954e+004
      vertex  2.687671e+005  2.306538e+005  7.671348e+004
    endloop
  endfacet
  facet normal -6.651204e-001 -7.467362e-001 -1.003148e-005
    outer loop
      vertex  2.687216e+005  2.306943e+005  7.756029e+004
      vertex  2.687671e+005  2.306538e+005  7.671348e+004
      vertex  2.687676e+005  2.306533e+005  7.754638e+004
    endloop
  endfacet
  facet normal -6.761782e-001 -7.367382e-001  2.836014e-006
    outer loop
      vertex  2.687676e+005  2.306533e+005  7.754638e+004
      vertex  2.687671e+005  2.306538e+005  7.671348e+004
      vertex  2.688131e+005  2.306116e+005  7.672410e+004
    endloop
  endfacet
  facet normal -6.762001e-001 -7.367181e-001  6.064586e-007
    outer loop
      vertex  2.687676e+005  2.306533e+005  7.754638e+004
      vertex  2.688131e+005  2.306116e+005  7.672410e+004
      vertex  2.688136e+005  2.306110e+005  7.753579e+004
    endloop
  endfacet
  facet normal -6.873814e-001 -7.262966e-001  1.497538e-005
    outer loop
      vertex  2.688136e+005  2.306110e+005  7.753579e+004
      vertex  2.688131e+005  2.306116e+005  7.672410e+004
      vertex  2.688588e+005  2.305682e+005  7.673130e+004
    endloop
  endfacet
  facet normal -6.875249e-001 -7.261609e-001 -3.105886e-007
    outer loop
      vertex  2.688136e+005  2.306110e+005  7.753579e+004
      vertex  2.688588e+005  2.305682e+005  7.673130e+004
      vertex  2.688594e+005  2.305677e+005  7.752863e+004
    endloop
  endfacet
  facet normal -6.996421e-001 -7.144935e-001  1.694408e-005
    outer loop
      vertex  2.688594e+005  2.305677e+005  7.752863e+004
      vertex  2.688588e+005  2.305682e+005  7.673130e+004
      vertex  2.689160e+005  2.305123e+005  7.673545e+004
    endloop
  endfacet
  facet normal -6.997634e-001 -7.143747e-001  0.000000e+000
    outer loop
      vertex  2.688594e+005  2.305677e+005  7.752863e+004
      vertex  2.689160e+005  2.305123e+005  7.673545e+004
      vertex  2.689160e+005  2.305123e+005  7.752455e+004
    endloop
  endfacet
endsolid CATIA STL
