solid CATIA STL
  facet normal -5.857521e-001 -5.156770e-001 -6.252773e-001
    outer loop
      vertex  2.677030e+005  2.313512e+005  7.816017e+004
      vertex  2.677804e+005  2.313152e+005  7.811739e+004
      vertex  2.677062e+005  2.312397e+005  7.824919e+004
    endloop
  endfacet
  facet normal -5.961320e-001 -5.043986e-001 -6.246668e-001
    outer loop
      vertex  2.677062e+005  2.312397e+005  7.824919e+004
      vertex  2.677804e+005  2.313152e+005  7.811739e+004
      vertex  2.678570e+005  2.312776e+005  7.807466e+004
    endloop
  endfacet
  facet normal -5.947827e-001 -5.067878e-001 -6.240189e-001
    outer loop
      vertex  2.677062e+005  2.312397e+005  7.824919e+004
      vertex  2.678570e+005  2.312776e+005  7.807466e+004
      vertex  2.678226e+005  2.311830e+005  7.818428e+004
    endloop
  endfacet
  facet normal -6.108405e-001 -4.944303e-001 -6.183952e-001
    outer loop
      vertex  2.678226e+005  2.311830e+005  7.818428e+004
      vertex  2.678570e+005  2.312776e+005  7.807466e+004
      vertex  2.680006e+005  2.312017e+005  7.799357e+004
    endloop
  endfacet
  facet normal -6.121243e-001 -4.916728e-001 -6.193235e-001
    outer loop
      vertex  2.678226e+005  2.311830e+005  7.818428e+004
      vertex  2.680006e+005  2.312017e+005  7.799357e+004
      vertex  2.679620e+005  2.311088e+005  7.810537e+004
    endloop
  endfacet
  facet normal -6.293393e-001 -4.772715e-001 -6.133056e-001
    outer loop
      vertex  2.679620e+005  2.311088e+005  7.810537e+004
      vertex  2.680006e+005  2.312017e+005  7.799357e+004
      vertex  2.681412e+005  2.311201e+005  7.791280e+004
    endloop
  endfacet
  facet normal -6.304765e-001 -4.746028e-001 -6.142081e-001
    outer loop
      vertex  2.679620e+005  2.311088e+005  7.810537e+004
      vertex  2.681412e+005  2.311201e+005  7.791280e+004
      vertex  2.680985e+005  2.310292e+005  7.802673e+004
    endloop
  endfacet
  facet normal -6.470804e-001 -4.595107e-001 -6.083888e-001
    outer loop
      vertex  2.680985e+005  2.310292e+005  7.802673e+004
      vertex  2.681412e+005  2.311201e+005  7.791280e+004
      vertex  2.682786e+005  2.310329e+005  7.783244e+004
    endloop
  endfacet
  facet normal -6.481190e-001 -4.568303e-001 -6.093013e-001
    outer loop
      vertex  2.680985e+005  2.310292e+005  7.802673e+004
      vertex  2.682786e+005  2.310329e+005  7.783244e+004
      vertex  2.682320e+005  2.309442e+005  7.794849e+004
    endloop
  endfacet
  facet normal -6.641799e-001 -4.409864e-001 -6.036524e-001
    outer loop
      vertex  2.682320e+005  2.309442e+005  7.794849e+004
      vertex  2.682786e+005  2.310329e+005  7.783244e+004
      vertex  2.684127e+005  2.309402e+005  7.775261e+004
    endloop
  endfacet
  facet normal -6.649708e-001 -4.387251e-001 -6.044288e-001
    outer loop
      vertex  2.682320e+005  2.309442e+005  7.794849e+004
      vertex  2.684127e+005  2.309402e+005  7.775261e+004
      vertex  2.683623e+005  2.308540e+005  7.787073e+004
    endloop
  endfacet
  facet normal -6.804547e-001 -4.221716e-001 -5.989594e-001
    outer loop
      vertex  2.683623e+005  2.308540e+005  7.787073e+004
      vertex  2.684127e+005  2.309402e+005  7.775261e+004
      vertex  2.685433e+005  2.308421e+005  7.767340e+004
    endloop
  endfacet
  facet normal -6.811286e-001 -4.200175e-001 -5.997074e-001
    outer loop
      vertex  2.683623e+005  2.308540e+005  7.787073e+004
      vertex  2.685433e+005  2.308421e+005  7.767340e+004
      vertex  2.684891e+005  2.307585e+005  7.779355e+004
    endloop
  endfacet
  facet normal -6.857444e-001 -4.147407e-001 -5.981176e-001
    outer loop
      vertex  2.684891e+005  2.307585e+005  7.779355e+004
      vertex  2.685433e+005  2.308421e+005  7.767340e+004
      vertex  2.685900e+005  2.308050e+005  7.764562e+004
    endloop
  endfacet
  facet normal -6.906185e-001 -4.058142e-001 -5.986325e-001
    outer loop
      vertex  2.684891e+005  2.307585e+005  7.779355e+004
      vertex  2.685900e+005  2.308050e+005  7.764562e+004
      vertex  2.685342e+005  2.307226e+005  7.776584e+004
    endloop
  endfacet
  facet normal -6.720379e-001 -4.273401e-001 -6.047689e-001
    outer loop
      vertex  2.685342e+005  2.307226e+005  7.776584e+004
      vertex  2.685900e+005  2.308050e+005  7.764562e+004
      vertex  2.686178e+005  2.307824e+005  7.763071e+004
    endloop
  endfacet
  facet normal -6.806732e-001 -4.141666e-001 -6.042764e-001
    outer loop
      vertex  2.685342e+005  2.307226e+005  7.776584e+004
      vertex  2.686178e+005  2.307824e+005  7.763071e+004
      vertex  2.685610e+005  2.307009e+005  7.775056e+004
    endloop
  endfacet
  facet normal -6.559703e-001 -4.422292e-001 -6.116667e-001
    outer loop
      vertex  2.685610e+005  2.307009e+005  7.775056e+004
      vertex  2.686178e+005  2.307824e+005  7.763071e+004
      vertex  2.686735e+005  2.307359e+005  7.760461e+004
    endloop
  endfacet
  facet normal -6.627567e-001 -4.290467e-001 -6.137365e-001
    outer loop
      vertex  2.685610e+005  2.307009e+005  7.775056e+004
      vertex  2.686735e+005  2.307359e+005  7.760461e+004
      vertex  2.686148e+005  2.306560e+005  7.772379e+004
    endloop
  endfacet
  facet normal -6.341017e-001 -4.608246e-001 -6.209313e-001
    outer loop
      vertex  2.686148e+005  2.306560e+005  7.772379e+004
      vertex  2.686735e+005  2.307359e+005  7.760461e+004
      vertex  2.687295e+005  2.306873e+005  7.758340e+004
    endloop
  endfacet
  facet normal -6.392421e-001 -4.509268e-001 -6.229241e-001
    outer loop
      vertex  2.686148e+005  2.306560e+005  7.772379e+004
      vertex  2.687295e+005  2.306873e+005  7.758340e+004
      vertex  2.686691e+005  2.306090e+005  7.770203e+004
    endloop
  endfacet
  facet normal -6.123210e-001 -4.798801e-001 -6.283138e-001
    outer loop
      vertex  2.686691e+005  2.306090e+005  7.770203e+004
      vertex  2.687295e+005  2.306873e+005  7.758340e+004
      vertex  2.687856e+005  2.306369e+005  7.756722e+004
    endloop
  endfacet
  facet normal -6.160702e-001 -4.727199e-001 -6.300741e-001
    outer loop
      vertex  2.686691e+005  2.306090e+005  7.770203e+004
      vertex  2.687856e+005  2.306369e+005  7.756722e+004
      vertex  2.687236e+005  2.305602e+005  7.768546e+004
    endloop
  endfacet
  facet normal -5.907055e-001 -4.991914e-001 -6.339362e-001
    outer loop
      vertex  2.687236e+005  2.305602e+005  7.768546e+004
      vertex  2.687856e+005  2.306369e+005  7.756722e+004
      vertex  2.688415e+005  2.305848e+005  7.755618e+004
    endloop
  endfacet
  facet normal -5.929941e-001 -4.948567e-001 -6.351967e-001
    outer loop
      vertex  2.687236e+005  2.305602e+005  7.768546e+004
      vertex  2.688415e+005  2.305848e+005  7.755618e+004
      vertex  2.687778e+005  2.305096e+005  7.767422e+004
    endloop
  endfacet
  facet normal -5.693370e-001 -5.188223e-001 -6.377137e-001
    outer loop
      vertex  2.687778e+005  2.305096e+005  7.767422e+004
      vertex  2.688415e+005  2.305848e+005  7.755618e+004
      vertex  2.688968e+005  2.305313e+005  7.755035e+004
    endloop
  endfacet
  facet normal -5.702554e-001 -5.170984e-001 -6.382930e-001
    outer loop
      vertex  2.687778e+005  2.305096e+005  7.767422e+004
      vertex  2.688968e+005  2.305313e+005  7.755035e+004
      vertex  2.688315e+005  2.304576e+005  7.766839e+004
    endloop
  endfacet
  facet normal -5.546056e-001 -5.325999e-001 -6.393355e-001
    outer loop
      vertex  2.688315e+005  2.304576e+005  7.766839e+004
      vertex  2.688968e+005  2.305313e+005  7.755035e+004
      vertex  2.689160e+005  2.305123e+005  7.754955e+004
    endloop
  endfacet
  facet normal -5.554661e-001 -5.315493e-001 -6.394630e-001
    outer loop
      vertex  2.688315e+005  2.304576e+005  7.766839e+004
      vertex  2.689160e+005  2.305123e+005  7.754955e+004
      vertex  2.688464e+005  2.304428e+005  7.766774e+004
    endloop
  endfacet
endsolid CATIA STL
