solid CATIA STL
  facet normal  1.000000e+000  0.000000e+000  0.000000e+000
    outer loop
      vertex  2.697882e+005  2.292285e+005  7.811212e+004
      vertex  2.697882e+005  2.292285e+005  7.811211e+004
      vertex  2.697882e+005  2.292285e+005  7.614789e+004
    endloop
  endfacet
  facet normal  1.000000e+000  0.000000e+000  0.000000e+000
    outer loop
      vertex  2.697882e+005  2.292285e+005  7.811212e+004
      vertex  2.697882e+005  2.292285e+005  7.614789e+004
      vertex  2.697882e+005  2.292285e+005  7.614788e+004
    endloop
  endfacet
  facet normal -9.182465e-001 -3.960093e-001  0.000000e+000
    outer loop
      vertex  2.697882e+005  2.292285e+005  7.811212e+004
      vertex  2.697882e+005  2.292285e+005  7.614788e+004
      vertex  2.697932e+005  2.292170e+005  7.714170e+004
    endloop
  endfacet
  facet normal -9.189246e-001 -3.944333e-001 -2.232261e-005
    outer loop
      vertex  2.697882e+005  2.292285e+005  7.811212e+004
      vertex  2.697932e+005  2.292170e+005  7.714170e+004
      vertex  2.697956e+005  2.292113e+005  7.720271e+004
    endloop
  endfacet
  facet normal -9.247793e-001 -3.805038e-001 -3.335058e-004
    outer loop
      vertex  2.697882e+005  2.292285e+005  7.811212e+004
      vertex  2.697956e+005  2.292113e+005  7.720271e+004
      vertex  2.698404e+005  2.291020e+005  7.781688e+004
    endloop
  endfacet
  facet normal -9.036020e-001 -4.282472e-001 -1.038002e-002
    outer loop
      vertex  2.698404e+005  2.291020e+005  7.781688e+004
      vertex  2.697956e+005  2.292113e+005  7.720271e+004
      vertex  2.698014e+005  2.291977e+005  7.726221e+004
    endloop
  endfacet
  facet normal -9.194044e-001 -3.933001e-001 -3.237168e-003
    outer loop
      vertex  2.698404e+005  2.291020e+005  7.781688e+004
      vertex  2.698014e+005  2.291977e+005  7.726221e+004
      vertex  2.698104e+005  2.291760e+005  7.731945e+004
    endloop
  endfacet
  facet normal -9.239325e-001 -3.825531e-001 -1.364181e-003
    outer loop
      vertex  2.698404e+005  2.291020e+005  7.781688e+004
      vertex  2.698104e+005  2.291760e+005  7.731945e+004
      vertex  2.698224e+005  2.291469e+005  7.737267e+004
    endloop
  endfacet
  facet normal -9.281972e-001 -3.720885e-001 -1.340903e-004
    outer loop
      vertex  2.698404e+005  2.291020e+005  7.781688e+004
      vertex  2.698224e+005  2.291469e+005  7.737267e+004
      vertex  2.698372e+005  2.291101e+005  7.742143e+004
    endloop
  endfacet
  facet normal -9.317102e-001 -3.632025e-001  7.813062e-005
    outer loop
      vertex  2.698404e+005  2.291020e+005  7.781688e+004
      vertex  2.698372e+005  2.291101e+005  7.742143e+004
      vertex  2.698504e+005  2.290761e+005  7.745588e+004
    endloop
  endfacet
  facet normal -9.347591e-001 -3.552817e-001 -5.749256e-004
    outer loop
      vertex  2.698404e+005  2.291020e+005  7.781688e+004
      vertex  2.698504e+005  2.290761e+005  7.745588e+004
      vertex  2.698650e+005  2.290378e+005  7.748616e+004
    endloop
  endfacet
  facet normal -9.384139e-001 -3.455024e-001 -2.744258e-003
    outer loop
      vertex  2.698404e+005  2.291020e+005  7.781688e+004
      vertex  2.698650e+005  2.290378e+005  7.748616e+004
      vertex  2.698841e+005  2.289856e+005  7.751668e+004
    endloop
  endfacet
  facet normal -9.408127e-001 -3.388798e-001 -5.660551e-003
    outer loop
      vertex  2.698404e+005  2.291020e+005  7.781688e+004
      vertex  2.698841e+005  2.289856e+005  7.751668e+004
      vertex  2.698882e+005  2.289741e+005  7.752236e+004
    endloop
  endfacet
  facet normal -9.405577e-001 -3.395928e-001  5.309463e-003
    outer loop
      vertex  2.698404e+005  2.291020e+005  7.644312e+004
      vertex  2.698882e+005  2.289741e+005  7.673764e+004
      vertex  2.698807e+005  2.289952e+005  7.674812e+004
    endloop
  endfacet
  facet normal -9.380043e-001 -3.466144e-001  2.513599e-003
    outer loop
      vertex  2.698404e+005  2.291020e+005  7.644312e+004
      vertex  2.698807e+005  2.289952e+005  7.674812e+004
      vertex  2.698653e+005  2.290370e+005  7.677332e+004
    endloop
  endfacet
  facet normal -9.349213e-001 -3.548545e-001  6.612557e-004
    outer loop
      vertex  2.698404e+005  2.291020e+005  7.644312e+004
      vertex  2.698653e+005  2.290370e+005  7.677332e+004
      vertex  2.698508e+005  2.290751e+005  7.680328e+004
    endloop
  endfacet
  facet normal -9.317274e-001 -3.631584e-001 -4.985175e-005
    outer loop
      vertex  2.698404e+005  2.291020e+005  7.644312e+004
      vertex  2.698508e+005  2.290751e+005  7.680328e+004
      vertex  2.698374e+005  2.291095e+005  7.683789e+004
    endloop
  endfacet
  facet normal -9.284168e-001 -3.715404e-001  1.356134e-004
    outer loop
      vertex  2.698404e+005  2.291020e+005  7.644312e+004
      vertex  2.698374e+005  2.291095e+005  7.683789e+004
      vertex  2.698255e+005  2.291394e+005  7.687610e+004
    endloop
  endfacet
  facet normal -9.253102e-001 -3.792100e-001  9.051525e-004
    outer loop
      vertex  2.698404e+005  2.291020e+005  7.644312e+004
      vertex  2.698255e+005  2.291394e+005  7.687610e+004
      vertex  2.698139e+005  2.291676e+005  7.692327e+004
    endloop
  endfacet
  facet normal -9.207805e-001 -3.900721e-001  2.639838e-003
    outer loop
      vertex  2.698404e+005  2.291020e+005  7.644312e+004
      vertex  2.698139e+005  2.291676e+005  7.692327e+004
      vertex  2.698048e+005  2.291896e+005  7.697343e+004
    endloop
  endfacet
  facet normal -9.148214e-001 -4.038238e-001  5.311633e-003
    outer loop
      vertex  2.698404e+005  2.291020e+005  7.644312e+004
      vertex  2.698048e+005  2.291896e+005  7.697343e+004
      vertex  2.697982e+005  2.292053e+005  7.702626e+004
    endloop
  endfacet
  facet normal -9.248522e-001 -3.803264e-001  4.224736e-004
    outer loop
      vertex  2.697882e+005  2.292285e+005  7.614788e+004
      vertex  2.698404e+005  2.291020e+005  7.644312e+004
      vertex  2.697982e+005  2.292053e+005  7.702626e+004
    endloop
  endfacet
  facet normal -9.199185e-001 -3.921097e-001  5.437393e-005
    outer loop
      vertex  2.697882e+005  2.292285e+005  7.614788e+004
      vertex  2.697982e+005  2.292053e+005  7.702626e+004
      vertex  2.697943e+005  2.292145e+005  7.708050e+004
    endloop
  endfacet
  facet normal -9.198693e-001 -3.922251e-001  5.231031e-005
    outer loop
      vertex  2.697882e+005  2.292285e+005  7.614788e+004
      vertex  2.697943e+005  2.292145e+005  7.708050e+004
      vertex  2.697932e+005  2.292170e+005  7.714170e+004
    endloop
  endfacet
  facet normal -7.805129e-001 -6.251397e-001  2.034260e-005
    outer loop
      vertex  2.692456e+005  2.301409e+005  7.663413e+004
      vertex  2.691973e+005  2.302011e+005  7.759495e+004
      vertex  2.691967e+005  2.302019e+005  7.666544e+004
    endloop
  endfacet
  facet normal -7.701025e-001 -6.379202e-001  1.256370e-006
    outer loop
      vertex  2.691967e+005  2.302019e+005  7.666544e+004
      vertex  2.691973e+005  2.302011e+005  7.759495e+004
      vertex  2.691592e+005  2.302472e+005  7.757508e+004
    endloop
  endfacet
  facet normal -7.702556e-001 -6.377352e-001 -1.424937e-005
    outer loop
      vertex  2.691967e+005  2.302019e+005  7.666544e+004
      vertex  2.691592e+005  2.302472e+005  7.757508e+004
      vertex  2.691585e+005  2.302480e+005  7.668524e+004
    endloop
  endfacet
  facet normal -7.610925e-001 -6.486433e-001 -3.096725e-005
    outer loop
      vertex  2.691585e+005  2.302480e+005  7.668524e+004
      vertex  2.691592e+005  2.302472e+005  7.757508e+004
      vertex  2.691196e+005  2.302936e+005  7.755833e+004
    endloop
  endfacet
  facet normal -7.606260e-001 -6.491903e-001  1.839136e-005
    outer loop
      vertex  2.691585e+005  2.302480e+005  7.668524e+004
      vertex  2.691196e+005  2.302936e+005  7.755833e+004
      vertex  2.691189e+005  2.302944e+005  7.670192e+004
    endloop
  endfacet
  facet normal -7.508734e-001 -6.604461e-001  2.941981e-007
    outer loop
      vertex  2.691189e+005  2.302944e+005  7.670192e+004
      vertex  2.691196e+005  2.302936e+005  7.755833e+004
      vertex  2.690787e+005  2.303402e+005  7.754482e+004
    endloop
  endfacet
  facet normal -7.509038e-001 -6.604115e-001 -3.047640e-006
    outer loop
      vertex  2.691189e+005  2.302944e+005  7.670192e+004
      vertex  2.690787e+005  2.303402e+005  7.754482e+004
      vertex  2.690780e+005  2.303409e+005  7.671537e+004
    endloop
  endfacet
  facet normal -7.411130e-001 -6.713803e-001 -2.071233e-005
    outer loop
      vertex  2.690780e+005  2.303409e+005  7.671537e+004
      vertex  2.690787e+005  2.303402e+005  7.754482e+004
      vertex  2.690367e+005  2.303865e+005  7.753470e+004
    endloop
  endfacet
  facet normal -7.408893e-001 -6.716271e-001  4.295844e-006
    outer loop
      vertex  2.690780e+005  2.303409e+005  7.671537e+004
      vertex  2.690367e+005  2.303865e+005  7.753470e+004
      vertex  2.690360e+005  2.303872e+005  7.672542e+004
    endloop
  endfacet
  facet normal -7.307247e-001 -6.826723e-001 -1.375617e-005
    outer loop
      vertex  2.690360e+005  2.303872e+005  7.672542e+004
      vertex  2.690367e+005  2.303865e+005  7.753470e+004
      vertex  2.689936e+005  2.304326e+005  7.752798e+004
    endloop
  endfacet
  facet normal -7.304938e-001 -6.829194e-001  1.241315e-005
    outer loop
      vertex  2.690360e+005  2.303872e+005  7.672542e+004
      vertex  2.689936e+005  2.304326e+005  7.752798e+004
      vertex  2.689930e+005  2.304333e+005  7.673209e+004
    endloop
  endfacet
  facet normal -7.166701e-001 -6.974124e-001 -1.150445e-005
    outer loop
      vertex  2.689930e+005  2.304333e+005  7.673209e+004
      vertex  2.689936e+005  2.304326e+005  7.752798e+004
      vertex  2.689195e+005  2.305088e+005  7.752447e+004
    endloop
  endfacet
  facet normal -7.166097e-001 -6.974744e-001  -0.000000e+000
    outer loop
      vertex  2.689930e+005  2.304333e+005  7.673209e+004
      vertex  2.689195e+005  2.305088e+005  7.752447e+004
      vertex  2.689195e+005  2.305088e+005  7.673553e+004
    endloop
  endfacet
  facet normal -7.807484e-001 -6.248455e-001 -9.920401e-006
    outer loop
      vertex  2.691973e+005  2.302011e+005  7.759495e+004
      vertex  2.692456e+005  2.301409e+005  7.663413e+004
      vertex  2.692458e+005  2.301405e+005  7.762605e+004
    endloop
  endfacet
  facet normal -7.937365e-001 -6.082618e-001 -1.161169e-006
    outer loop
      vertex  2.692458e+005  2.301405e+005  7.762605e+004
      vertex  2.692456e+005  2.301409e+005  7.663413e+004
      vertex  2.693033e+005  2.300655e+005  7.659174e+004
    endloop
  endfacet
  facet normal -7.935828e-001 -6.084622e-001  2.191955e-005
    outer loop
      vertex  2.692458e+005  2.301405e+005  7.762605e+004
      vertex  2.693033e+005  2.300655e+005  7.659174e+004
      vertex  2.693029e+005  2.300661e+005  7.766791e+004
    endloop
  endfacet
  facet normal -8.121365e-001 -5.834675e-001  2.237374e-007
    outer loop
      vertex  2.693029e+005  2.300661e+005  7.766791e+004
      vertex  2.693033e+005  2.300655e+005  7.659174e+004
      vertex  2.693980e+005  2.299337e+005  7.651870e+004
    endloop
  endfacet
  facet normal -8.121433e-001 -5.834581e-001 -1.421947e-006
    outer loop
      vertex  2.693029e+005  2.300661e+005  7.766791e+004
      vertex  2.693980e+005  2.299337e+005  7.651870e+004
      vertex  2.693976e+005  2.299343e+005  7.774099e+004
    endloop
  endfacet
  facet normal -8.345435e-001 -5.509422e-001 -2.383081e-005
    outer loop
      vertex  2.693976e+005  2.299343e+005  7.774099e+004
      vertex  2.693980e+005  2.299337e+005  7.651870e+004
      vertex  2.694872e+005  2.297987e+005  7.644520e+004
    endloop
  endfacet
  facet normal -8.343627e-001 -5.512159e-001  1.732049e-005
    outer loop
      vertex  2.693976e+005  2.299343e+005  7.774099e+004
      vertex  2.694872e+005  2.297987e+005  7.644520e+004
      vertex  2.694869e+005  2.297991e+005  7.781455e+004
    endloop
  endfacet
  facet normal -8.553507e-001 -5.180493e-001  1.656400e-006
    outer loop
      vertex  2.694869e+005  2.297991e+005  7.781455e+004
      vertex  2.694872e+005  2.297987e+005  7.644520e+004
      vertex  2.695708e+005  2.296605e+005  7.637132e+004
    endloop
  endfacet
  facet normal -8.553292e-001 -5.180850e-001  6.342280e-006
    outer loop
      vertex  2.694869e+005  2.297991e+005  7.781455e+004
      vertex  2.695708e+005  2.296605e+005  7.637132e+004
      vertex  2.695706e+005  2.296609e+005  7.788851e+004
    endloop
  endfacet
  facet normal -8.750750e-001 -4.839874e-001 -3.472343e-006
    outer loop
      vertex  2.695706e+005  2.296609e+005  7.788851e+004
      vertex  2.695708e+005  2.296605e+005  7.637132e+004
      vertex  2.696489e+005  2.295194e+005  7.629712e+004
    endloop
  endfacet
  facet normal -8.750336e-001 -4.840625e-001  5.239519e-006
    outer loop
      vertex  2.695706e+005  2.296609e+005  7.788851e+004
      vertex  2.696489e+005  2.295194e+005  7.629712e+004
      vertex  2.696488e+005  2.295196e+005  7.796279e+004
    endloop
  endfacet
  facet normal -8.932419e-001 -4.495763e-001  3.326766e-007
    outer loop
      vertex  2.696488e+005  2.295196e+005  7.796279e+004
      vertex  2.696489e+005  2.295194e+005  7.629712e+004
      vertex  2.697214e+005  2.293754e+005  7.622261e+004
    endloop
  endfacet
  facet normal -8.932243e-001 -4.496114e-001  3.974465e-006
    outer loop
      vertex  2.696488e+005  2.295196e+005  7.796279e+004
      vertex  2.697214e+005  2.293754e+005  7.622261e+004
      vertex  2.697213e+005  2.293754e+005  7.803735e+004
    endloop
  endfacet
  facet normal -9.101802e-001 -4.142125e-001  2.158556e-006
    outer loop
      vertex  2.697213e+005  2.293754e+005  7.803735e+004
      vertex  2.697214e+005  2.293754e+005  7.622261e+004
      vertex  2.697882e+005  2.292285e+005  7.614789e+004
    endloop
  endfacet
  facet normal -9.101906e-001 -4.141895e-001  0.000000e+000
    outer loop
      vertex  2.697213e+005  2.293754e+005  7.803735e+004
      vertex  2.697882e+005  2.292285e+005  7.614789e+004
      vertex  2.697882e+005  2.292285e+005  7.811211e+004
    endloop
  endfacet
endsolid CATIA STL
