solid CATIA STL
  facet normal -4.448761e-001 -6.536011e-001 -6.122832e-001
    outer loop
      vertex  2.693294e+005  2.300303e+005  7.771532e+004
      vertex  2.694037e+005  2.299255e+005  7.777327e+004
      vertex  2.692741e+005  2.299370e+005  7.785513e+004
    endloop
  endfacet
  facet normal -4.507726e-001 -6.385568e-001 -6.237382e-001
    outer loop
      vertex  2.692741e+005  2.299370e+005  7.785513e+004
      vertex  2.694037e+005  2.299255e+005  7.777327e+004
      vertex  2.694745e+005  2.298185e+005  7.783156e+004
    endloop
  endfacet
  facet normal -4.545098e-001 -6.472149e-001 -6.119916e-001
    outer loop
      vertex  2.692741e+005  2.299370e+005  7.785513e+004
      vertex  2.694745e+005  2.298185e+005  7.783156e+004
      vertex  2.693680e+005  2.297996e+005  7.793065e+004
    endloop
  endfacet
  facet normal -4.690847e-001 -6.254434e-001 -6.235224e-001
    outer loop
      vertex  2.693680e+005  2.297996e+005  7.793065e+004
      vertex  2.694745e+005  2.298185e+005  7.783156e+004
      vertex  2.695420e+005  2.297095e+005  7.789014e+004
    endloop
  endfacet
  facet normal -4.697468e-001 -6.281909e-001 -6.202532e-001
    outer loop
      vertex  2.693680e+005  2.297996e+005  7.793065e+004
      vertex  2.695420e+005  2.297095e+005  7.789014e+004
      vertex  2.694561e+005  2.296587e+005  7.800666e+004
    endloop
  endfacet
  facet normal -4.862842e-001 -6.107928e-001 -6.248679e-001
    outer loop
      vertex  2.694561e+005  2.296587e+005  7.800666e+004
      vertex  2.695420e+005  2.297095e+005  7.789014e+004
      vertex  2.696105e+005  2.295904e+005  7.795325e+004
    endloop
  endfacet
  facet normal -4.862947e-001 -6.109198e-001 -6.247354e-001
    outer loop
      vertex  2.694561e+005  2.296587e+005  7.800666e+004
      vertex  2.696105e+005  2.295904e+005  7.795325e+004
      vertex  2.695227e+005  2.295429e+005  7.806810e+004
    endloop
  endfacet
  facet normal -5.006654e-001 -5.946980e-001 -6.290217e-001
    outer loop
      vertex  2.695227e+005  2.295429e+005  7.806810e+004
      vertex  2.696105e+005  2.295904e+005  7.795325e+004
      vertex  2.696750e+005  2.294691e+005  7.801657e+004
    endloop
  endfacet
  facet normal -5.006800e-001 -5.948103e-001 -6.289040e-001
    outer loop
      vertex  2.695227e+005  2.295429e+005  7.806810e+004
      vertex  2.696750e+005  2.294691e+005  7.801657e+004
      vertex  2.695853e+005  2.294250e+005  7.812973e+004
    endloop
  endfacet
  facet normal -5.139819e-001 -5.787224e-001 -6.331689e-001
    outer loop
      vertex  2.695853e+005  2.294250e+005  7.812973e+004
      vertex  2.696750e+005  2.294691e+005  7.801657e+004
      vertex  2.697313e+005  2.293545e+005  7.807564e+004
    endloop
  endfacet
  facet normal -5.141641e-001 -5.803774e-001 -6.315041e-001
    outer loop
      vertex  2.695853e+005  2.294250e+005  7.812973e+004
      vertex  2.697313e+005  2.293545e+005  7.807564e+004
      vertex  2.696308e+005  2.293331e+005  7.817718e+004
    endloop
  endfacet
  facet normal -5.249850e-001 -5.627661e-001 -6.385021e-001
    outer loop
      vertex  2.696308e+005  2.293331e+005  7.817718e+004
      vertex  2.697313e+005  2.293545e+005  7.807564e+004
      vertex  2.697840e+005  2.292382e+005  7.813480e+004
    endloop
  endfacet
  facet normal -5.264077e-001 -5.674486e-001 -6.331643e-001
    outer loop
      vertex  2.696308e+005  2.293331e+005  7.817718e+004
      vertex  2.697840e+005  2.292382e+005  7.813480e+004
      vertex  2.696739e+005  2.292400e+005  7.822469e+004
    endloop
  endfacet
  facet normal -4.475443e-001 -6.445022e-001 -6.199363e-001
    outer loop
      vertex  2.690616e+005  2.302093e+005  7.771070e+004
      vertex  2.691845e+005  2.302168e+005  7.761428e+004
      vertex  2.691097e+005  2.301517e+005  7.773595e+004
    endloop
  endfacet
  facet normal -4.320801e-001 -6.574238e-001 -6.173335e-001
    outer loop
      vertex  2.691097e+005  2.301517e+005  7.773595e+004
      vertex  2.691845e+005  2.302168e+005  7.761428e+004
      vertex  2.692311e+005  2.301592e+005  7.764299e+004
    endloop
  endfacet
  facet normal -4.256462e-001 -6.685328e-001 -6.098272e-001
    outer loop
      vertex  2.691097e+005  2.301517e+005  7.773595e+004
      vertex  2.692311e+005  2.301592e+005  7.764299e+004
      vertex  2.691543e+005  2.300961e+005  7.776570e+004
    endloop
  endfacet
  facet normal -4.207183e-001 -6.725621e-001 -6.088156e-001
    outer loop
      vertex  2.691543e+005  2.300961e+005  7.776570e+004
      vertex  2.692311e+005  2.301592e+005  7.764299e+004
      vertex  2.692518e+005  2.301329e+005  7.765774e+004
    endloop
  endfacet
  facet normal -4.192706e-001 -6.741558e-001 -6.080510e-001
    outer loop
      vertex  2.691543e+005  2.300961e+005  7.776570e+004
      vertex  2.692518e+005  2.301329e+005  7.765774e+004
      vertex  2.691744e+005  2.300706e+005  7.778020e+004
    endloop
  endfacet
  facet normal -4.284848e-001 -6.665529e-001 -6.100066e-001
    outer loop
      vertex  2.691744e+005  2.300706e+005  7.778020e+004
      vertex  2.692518e+005  2.301329e+005  7.765774e+004
      vertex  2.693294e+005  2.300303e+005  7.771532e+004
    endloop
  endfacet
  facet normal -4.289061e-001 -6.637653e-001 -6.127441e-001
    outer loop
      vertex  2.691744e+005  2.300706e+005  7.778020e+004
      vertex  2.693294e+005  2.300303e+005  7.771532e+004
      vertex  2.692741e+005  2.299370e+005  7.785513e+004
    endloop
  endfacet
  facet normal -4.527741e-001 -6.350423e-001 -6.258728e-001
    outer loop
      vertex  2.691845e+005  2.302168e+005  7.761428e+004
      vertex  2.690616e+005  2.302093e+005  7.771070e+004
      vertex  2.691352e+005  2.302755e+005  7.759037e+004
    endloop
  endfacet
  facet normal -4.701881e-001 -6.199147e-001 -6.281950e-001
    outer loop
      vertex  2.691352e+005  2.302755e+005  7.759037e+004
      vertex  2.690616e+005  2.302093e+005  7.771070e+004
      vertex  2.690114e+005  2.302673e+005  7.769109e+004
    endloop
  endfacet
  facet normal -4.740486e-001 -6.127070e-001 -6.323513e-001
    outer loop
      vertex  2.691352e+005  2.302755e+005  7.759037e+004
      vertex  2.690114e+005  2.302673e+005  7.769109e+004
      vertex  2.690838e+005  2.303344e+005  7.757180e+004
    endloop
  endfacet
  facet normal -4.929951e-001 -5.955884e-001 -6.342161e-001
    outer loop
      vertex  2.690838e+005  2.303344e+005  7.757180e+004
      vertex  2.690114e+005  2.302673e+005  7.769109e+004
      vertex  2.689592e+005  2.303252e+005  7.767727e+004
    endloop
  endfacet
  facet normal -4.955096e-001 -5.907629e-001 -6.367648e-001
    outer loop
      vertex  2.690838e+005  2.303344e+005  7.757180e+004
      vertex  2.689592e+005  2.303252e+005  7.767727e+004
      vertex  2.690306e+005  2.303932e+005  7.755873e+004
    endloop
  endfacet
  facet normal -5.160149e-001 -5.714937e-001 -6.380623e-001
    outer loop
      vertex  2.690306e+005  2.303932e+005  7.755873e+004
      vertex  2.689592e+005  2.303252e+005  7.767727e+004
      vertex  2.689053e+005  2.303826e+005  7.766944e+004
    endloop
  endfacet
  facet normal -5.172118e-001 -5.691433e-001 -6.391932e-001
    outer loop
      vertex  2.690306e+005  2.303932e+005  7.755873e+004
      vertex  2.689053e+005  2.303826e+005  7.766944e+004
      vertex  2.689757e+005  2.304514e+005  7.755127e+004
    endloop
  endfacet
  facet normal -5.391937e-001 -5.476611e-001 -6.397948e-001
    outer loop
      vertex  2.689757e+005  2.304514e+005  7.755127e+004
      vertex  2.689053e+005  2.303826e+005  7.766944e+004
      vertex  2.688500e+005  2.304392e+005  7.766765e+004
    endloop
  endfacet
  facet normal -5.390095e-001 -5.480300e-001 -6.396343e-001
    outer loop
      vertex  2.689757e+005  2.304514e+005  7.755127e+004
      vertex  2.688500e+005  2.304392e+005  7.766765e+004
      vertex  2.689195e+005  2.305088e+005  7.754947e+004
    endloop
  endfacet
endsolid CATIA STL
