solid CATIA STL
  facet normal -1.464794e-001 -7.248132e-001 -6.731936e-001
    outer loop
      vertex  2.680443e+005  2.302157e+005  7.636429e+004
      vertex  2.679223e+005  2.301838e+005  7.642516e+004
      vertex  2.679920e+005  2.302559e+005  7.633245e+004
    endloop
  endfacet
  facet normal -1.254874e-001 -7.355412e-001 -6.657567e-001
    outer loop
      vertex  2.679920e+005  2.302559e+005  7.633245e+004
      vertex  2.679223e+005  2.301838e+005  7.642516e+004
      vertex  2.678221e+005  2.302553e+005  7.636512e+004
    endloop
  endfacet
  facet normal -1.260089e-001 -7.330278e-001 -6.684250e-001
    outer loop
      vertex  2.679920e+005  2.302559e+005  7.633245e+004
      vertex  2.678221e+005  2.302553e+005  7.636512e+004
      vertex  2.678912e+005  2.303286e+005  7.627171e+004
    endloop
  endfacet
  facet normal -1.021612e-001 -7.444857e-001 -6.597757e-001
    outer loop
      vertex  2.678912e+005  2.303286e+005  7.627171e+004
      vertex  2.678221e+005  2.302553e+005  7.636512e+004
      vertex  2.677280e+005  2.303173e+005  7.630973e+004
    endloop
  endfacet
  facet normal -1.030254e-001 -7.417808e-001 -6.626818e-001
    outer loop
      vertex  2.678912e+005  2.303286e+005  7.627171e+004
      vertex  2.677280e+005  2.303173e+005  7.630973e+004
      vertex  2.677966e+005  2.303918e+005  7.621569e+004
    endloop
  endfacet
  facet normal -7.971077e-002 -7.522863e-001 -6.539966e-001
    outer loop
      vertex  2.677966e+005  2.303918e+005  7.621569e+004
      vertex  2.677280e+005  2.303173e+005  7.630973e+004
      vertex  2.676320e+005  2.303759e+005  7.625403e+004
    endloop
  endfacet
  facet normal -8.082101e-002 -7.491421e-001 -6.574604e-001
    outer loop
      vertex  2.677966e+005  2.303918e+005  7.621569e+004
      vertex  2.676320e+005  2.303759e+005  7.625403e+004
      vertex  2.677000e+005  2.304516e+005  7.615939e+004
    endloop
  endfacet
  facet normal -5.723315e-002 -7.590907e-001 -6.484640e-001
    outer loop
      vertex  2.677000e+005  2.304516e+005  7.615939e+004
      vertex  2.676320e+005  2.303759e+005  7.625403e+004
      vertex  2.675340e+005  2.304310e+005  7.619811e+004
    endloop
  endfacet
  facet normal -5.850856e-002 -7.557999e-001 -6.521835e-001
    outer loop
      vertex  2.677000e+005  2.304516e+005  7.615939e+004
      vertex  2.675340e+005  2.304310e+005  7.619811e+004
      vertex  2.676015e+005  2.305080e+005  7.610286e+004
    endloop
  endfacet
  facet normal -3.470220e-002 -7.651700e-001 -6.428924e-001
    outer loop
      vertex  2.676015e+005  2.305080e+005  7.610286e+004
      vertex  2.675340e+005  2.304310e+005  7.619811e+004
      vertex  2.674343e+005  2.304827e+005  7.614199e+004
    endloop
  endfacet
  facet normal -3.626634e-002 -7.614710e-001 -6.471837e-001
    outer loop
      vertex  2.676015e+005  2.305080e+005  7.610286e+004
      vertex  2.674343e+005  2.304827e+005  7.614199e+004
      vertex  2.675012e+005  2.305610e+005  7.604616e+004
    endloop
  endfacet
  facet normal -1.510039e-002 -7.692548e-001 -6.387637e-001
    outer loop
      vertex  2.675012e+005  2.305610e+005  7.604616e+004
      vertex  2.674343e+005  2.304827e+005  7.614199e+004
      vertex  2.673638e+005  2.305167e+005  7.610279e+004
    endloop
  endfacet
  facet normal -1.831239e-002 -7.652748e-001 -6.434433e-001
    outer loop
      vertex  2.675012e+005  2.305610e+005  7.604616e+004
      vertex  2.673638e+005  2.305167e+005  7.610279e+004
      vertex  2.674421e+005  2.305902e+005  7.601313e+004
    endloop
  endfacet
  facet normal -1.529072e-001 -7.158054e-001 -6.813533e-001
    outer loop
      vertex  2.679223e+005  2.301838e+005  7.642516e+004
      vertex  2.680443e+005  2.302157e+005  7.636429e+004
      vertex  2.679749e+005  2.301440e+005  7.645523e+004
    endloop
  endfacet
  facet normal -1.764379e-001 -7.028590e-001 -6.891001e-001
    outer loop
      vertex  2.679749e+005  2.301440e+005  7.645523e+004
      vertex  2.680443e+005  2.302157e+005  7.636429e+004
      vertex  2.680831e+005  2.301848e+005  7.638588e+004
    endloop
  endfacet
  facet normal -1.899996e-001 -6.872913e-001 -7.010927e-001
    outer loop
      vertex  2.679749e+005  2.301440e+005  7.645523e+004
      vertex  2.680831e+005  2.301848e+005  7.638588e+004
      vertex  2.680141e+005  2.301132e+005  7.647481e+004
    endloop
  endfacet
  facet normal -2.103001e-001 -6.751534e-001 -7.070655e-001
    outer loop
      vertex  2.680141e+005  2.301132e+005  7.647481e+004
      vertex  2.680831e+005  2.301848e+005  7.638588e+004
      vertex  2.681222e+005  2.301527e+005  7.640495e+004
    endloop
  endfacet
  facet normal -2.217584e-001 -6.610527e-001 -7.168211e-001
    outer loop
      vertex  2.680141e+005  2.301132e+005  7.647481e+004
      vertex  2.681222e+005  2.301527e+005  7.640495e+004
      vertex  2.680534e+005  2.300813e+005  7.649209e+004
    endloop
  endfacet
  facet normal -2.447172e-001 -6.462647e-001 -7.228109e-001
    outer loop
      vertex  2.680534e+005  2.300813e+005  7.649209e+004
      vertex  2.681222e+005  2.301527e+005  7.640495e+004
      vertex  2.681615e+005  2.301194e+005  7.642141e+004
    endloop
  endfacet
  facet normal -2.547499e-001 -6.330320e-001 -7.310082e-001
    outer loop
      vertex  2.680534e+005  2.300813e+005  7.649209e+004
      vertex  2.681615e+005  2.301194e+005  7.642141e+004
      vertex  2.680928e+005  2.300482e+005  7.650699e+004
    endloop
  endfacet
  facet normal -2.855820e-001 -6.115491e-001 -7.378689e-001
    outer loop
      vertex  2.680928e+005  2.300482e+005  7.650699e+004
      vertex  2.681615e+005  2.301194e+005  7.642141e+004
      vertex  2.682118e+005  2.300752e+005  7.643853e+004
    endloop
  endfacet
  facet normal -2.922207e-001 -5.998928e-001 -7.448059e-001
    outer loop
      vertex  2.680928e+005  2.300482e+005  7.650699e+004
      vertex  2.682118e+005  2.300752e+005  7.643853e+004
      vertex  2.681432e+005  2.300044e+005  7.652252e+004
    endloop
  endfacet
  facet normal -3.314792e-001 -5.700768e-001 -7.517539e-001
    outer loop
      vertex  2.681432e+005  2.300044e+005  7.652252e+004
      vertex  2.682118e+005  2.300752e+005  7.643853e+004
      vertex  2.682620e+005  2.300294e+005  7.645116e+004
    endloop
  endfacet
  facet normal -3.361470e-001 -5.611380e-001 -7.563923e-001
    outer loop
      vertex  2.681432e+005  2.300044e+005  7.652252e+004
      vertex  2.682620e+005  2.300294e+005  7.645116e+004
      vertex  2.681932e+005  2.299590e+005  7.653397e+004
    endloop
  endfacet
  facet normal -3.773997e-001 -5.268868e-001 -7.615510e-001
    outer loop
      vertex  2.681932e+005  2.299590e+005  7.653397e+004
      vertex  2.682620e+005  2.300294e+005  7.645116e+004
      vertex  2.683118e+005  2.299821e+005  7.645919e+004
    endloop
  endfacet
  facet normal -3.802190e-001 -5.209936e-001 -7.641984e-001
    outer loop
      vertex  2.681932e+005  2.299590e+005  7.653397e+004
      vertex  2.683118e+005  2.299821e+005  7.645919e+004
      vertex  2.682427e+005  2.299122e+005  7.654128e+004
    endloop
  endfacet
  facet normal -4.233631e-001 -4.818689e-001 -7.671807e-001
    outer loop
      vertex  2.682427e+005  2.299122e+005  7.654128e+004
      vertex  2.683118e+005  2.299821e+005  7.645919e+004
      vertex  2.683609e+005  2.299336e+005  7.646258e+004
    endloop
  endfacet
  facet normal -4.243480e-001 -4.796172e-001 -7.680469e-001
    outer loop
      vertex  2.682427e+005  2.299122e+005  7.654128e+004
      vertex  2.683609e+005  2.299336e+005  7.646258e+004
      vertex  2.682913e+005  2.298641e+005  7.654441e+004
    endloop
  endfacet
endsolid CATIA STL
