solid CATIA STL
  facet normal -9.999999e-001  0.000000e+000  -0.000000e+000
    outer loop
      vertex  2.701262e+005  2.265270e+005  7.564876e+004
      vertex  2.701262e+005  2.275930e+005  7.610548e+004
      vertex  2.701262e+005  2.275930e+005  7.538544e+004
    endloop
  endfacet
  facet normal -1.000000e+000  0.000000e+000  -0.000000e+000
    outer loop
      vertex  2.701262e+005  2.264118e+005  7.559941e+004
      vertex  2.701262e+005  2.265270e+005  7.564876e+004
      vertex  2.701262e+005  2.275930e+005  7.538544e+004
    endloop
  endfacet
  facet normal -9.999999e-001  -0.000000e+000  0.000000e+000
    outer loop
      vertex  2.701262e+005  2.264118e+005  7.559941e+004
      vertex  2.701262e+005  2.275930e+005  7.538544e+004
      vertex  2.701262e+005  2.275831e+005  7.538119e+004
    endloop
  endfacet
  facet normal -1.000000e+000  -0.000000e+000  0.000000e+000
    outer loop
      vertex  2.701262e+005  2.264118e+005  7.559941e+004
      vertex  2.701262e+005  2.275831e+005  7.538119e+004
      vertex  2.701262e+005  2.275379e+005  7.536177e+004
    endloop
  endfacet
  facet normal -1.000000e+000  -0.000000e+000  0.000000e+000
    outer loop
      vertex  2.701262e+005  2.264118e+005  7.559941e+004
      vertex  2.701262e+005  2.275379e+005  7.536177e+004
      vertex  2.701262e+005  2.267184e+005  7.501066e+004
    endloop
  endfacet
  facet normal -1.000000e+000  -0.000000e+000  0.000000e+000
    outer loop
      vertex  2.701262e+005  2.264118e+005  7.559941e+004
      vertex  2.701262e+005  2.267184e+005  7.501066e+004
      vertex  2.701262e+005  2.266725e+005  7.499101e+004
    endloop
  endfacet
  facet normal -9.336310e-001 -3.582311e-001 -1.877573e-003
    outer loop
      vertex  2.698180e+005  2.291577e+005  7.625423e+004
      vertex  2.698778e+005  2.290030e+005  7.603535e+004
      vertex  2.698958e+005  2.289526e+005  7.672714e+004
    endloop
  endfacet
  facet normal -9.996090e-001 -1.250423e-002  2.500847e-002
    outer loop
      vertex  2.698778e+005  2.290030e+005  7.603535e+004
      vertex  2.698958e+005  2.289526e+005  7.672713e+004
      vertex  2.698958e+005  2.289526e+005  7.672714e+004
    endloop
  endfacet
  facet normal -9.289579e-001 -3.701034e-001  7.787751e-003
    outer loop
      vertex  2.698778e+005  2.290030e+005  7.603535e+004
      vertex  2.698180e+005  2.291577e+005  7.625423e+004
      vertex  2.697971e+005  2.292077e+005  7.613737e+004
    endloop
  endfacet
  facet normal -9.999949e-001 -3.174587e-003  0.000000e+000
    outer loop
      vertex  2.701262e+005  2.275930e+005  7.610548e+004
      vertex  2.701262e+005  2.276028e+005  7.610970e+004
      vertex  2.701262e+005  2.275930e+005  7.538544e+004
    endloop
  endfacet
  facet normal -9.998335e-001 -1.824293e-002  2.048084e-004
    outer loop
      vertex  2.701262e+005  2.275930e+005  7.538544e+004
      vertex  2.701262e+005  2.276028e+005  7.610970e+004
      vertex  2.701238e+005  2.277336e+005  7.616591e+004
    endloop
  endfacet
  facet normal -9.997873e-001 -2.061758e-002  6.328581e-004
    outer loop
      vertex  2.701262e+005  2.275930e+005  7.538544e+004
      vertex  2.701238e+005  2.277336e+005  7.616591e+004
      vertex  2.701228e+005  2.277604e+005  7.545810e+004
    endloop
  endfacet
  facet normal -9.982607e-001 -5.894917e-002 -8.187912e-004
    outer loop
      vertex  2.701228e+005  2.277604e+005  7.545810e+004
      vertex  2.701238e+005  2.277336e+005  7.616591e+004
      vertex  2.701114e+005  2.279419e+005  7.625696e+004
    endloop
  endfacet
  facet normal -9.981601e-001 -6.063158e-002 -4.350490e-004
    outer loop
      vertex  2.701228e+005  2.277604e+005  7.545810e+004
      vertex  2.701114e+005  2.279419e+005  7.625696e+004
      vertex  2.701127e+005  2.279271e+005  7.553162e+004
    endloop
  endfacet
  facet normal -9.939299e-001 -1.100133e-001  5.836902e-004
    outer loop
      vertex  2.701127e+005  2.279271e+005  7.553162e+004
      vertex  2.701114e+005  2.279419e+005  7.625696e+004
      vertex  2.700886e+005  2.281488e+005  7.634931e+004
    endloop
  endfacet
  facet normal -9.941880e-001 -1.076573e-001 -6.276795e-005
    outer loop
      vertex  2.701127e+005  2.279271e+005  7.553162e+004
      vertex  2.700886e+005  2.281488e+005  7.634931e+004
      vertex  2.700888e+005  2.281475e+005  7.563063e+004
    endloop
  endfacet
  facet normal -9.871730e-001 -1.596543e-001  3.402269e-005
    outer loop
      vertex  2.700888e+005  2.281475e+005  7.563063e+004
      vertex  2.700886e+005  2.281488e+005  7.634931e+004
      vertex  2.700554e+005  2.283538e+005  7.644276e+004
    endloop
  endfacet
  facet normal -9.869403e-001 -1.610865e-001  4.074498e-004
    outer loop
      vertex  2.700888e+005  2.281475e+005  7.563063e+004
      vertex  2.700554e+005  2.283538e+005  7.644276e+004
      vertex  2.700532e+005  2.283658e+005  7.573078e+004
    endloop
  endfacet
  facet normal -9.779518e-001 -2.088303e-001 -4.246058e-004
    outer loop
      vertex  2.700532e+005  2.283658e+005  7.573078e+004
      vertex  2.700554e+005  2.283538e+005  7.644276e+004
      vertex  2.700121e+005  2.285565e+005  7.653703e+004
    endloop
  endfacet
  facet normal -9.768555e-001 -2.138988e-001  8.297816e-004
    outer loop
      vertex  2.700532e+005  2.283658e+005  7.573078e+004
      vertex  2.700121e+005  2.285565e+005  7.653703e+004
      vertex  2.700060e+005  2.285816e+005  7.583180e+004
    endloop
  endfacet
  facet normal -9.663076e-001 -2.573886e-001 -8.088211e-004
    outer loop
      vertex  2.700060e+005  2.285816e+005  7.583180e+004
      vertex  2.700121e+005  2.285565e+005  7.653703e+004
      vertex  2.699588e+005  2.287562e+005  7.663189e+004
    endloop
  endfacet
  facet normal -9.639729e-001 -2.659977e-001  1.208028e-003
    outer loop
      vertex  2.700060e+005  2.285816e+005  7.583180e+004
      vertex  2.699588e+005  2.287562e+005  7.663189e+004
      vertex  2.699475e+005  2.287942e+005  7.593341e+004
    endloop
  endfacet
  facet normal -9.522380e-001 -3.053547e-001 -1.120216e-003
    outer loop
      vertex  2.699475e+005  2.287942e+005  7.593341e+004
      vertex  2.699588e+005  2.287562e+005  7.663189e+004
      vertex  2.698958e+005  2.289526e+005  7.672713e+004
    endloop
  endfacet
  facet normal -9.483716e-001 -3.171577e-001  1.488388e-003
    outer loop
      vertex  2.699475e+005  2.287942e+005  7.593341e+004
      vertex  2.698958e+005  2.289526e+005  7.672713e+004
      vertex  2.698778e+005  2.290030e+005  7.603535e+004
    endloop
  endfacet
endsolid CATIA STL
